# xmcd
#
# Track frame offsets:
#	150
#	15198
#	31915
#	43808
#	57020
#	71708
#	89785
#	109505
#	126365
#	142320
#	160490
#	188818
#	205058
#	222570
#	226185
#	244573
#
# Disc length: 3421 seconds
#
# Revision: 2
# Processed by: cddbd v1.5.2PL0 Copyright (c) Steve Scherf et al.
# Submitted via: EasyCDDAExtractor 15.3.0.1
#
DISCID=e60d5b10
DTITLE=Rocio Durcal - El Concierto ...En Vivo - CD 2
DYEAR=1992
DGENRE=Latin
TTITLE0=Fue Un Placer Conocerte (A Duo Con Juan Gabriel)
TTITLE1=Tarde (A Duo Con Juan Gabriel)
TTITLE2=Tu Abandono
TTITLE3=Me Nace Del Corazon
TTITLE4=Jamas Me Cansare De Ti
TTITLE5=Me Desperto La Realidad
TTITLE6=No Lastimes Mas
TTITLE7=Diferentes
TTITLE8=La Diferencia
TTITLE9=Con Todo Y Mi Tristeza
TTITLE10=Amor Eterno
TTITLE11=Como Tu Mujer
TTITLE12=La Guirnalda
TTITLE13=Final Instrumental Quedate Conmigo Esta Noche
TTITLE14=Como Amigos (Cancion Inedita)
TTITLE15=Mia Un Año (Cancion Inedita)
EXTD=YEAR: 1992 ID3G: 115
EXTT0=
EXTT1=
EXTT2=
EXTT3=
EXTT4=
EXTT5=
EXTT6=
EXTT7=
EXTT8=
EXTT9=
EXTT10=
EXTT11=
EXTT12=
EXTT13=
EXTT14=
EXTT15=
PLAYORDER=
